<svg class="fig" viewBox="0 0 326 286" role="img" aria-label="Lines of latitude and longitude with lettered places" xmlns="http://www.w3.org/2000/svg" font-family="system-ui, sans-serif" font-size="11" fill="none" stroke="#222" stroke-width="1"><line x1="52" y1="262" x2="300" y2="262" stroke-opacity="0.6"/><line x1="52" y1="262" x2="52" y2="14" stroke-opacity="0.6"/><text x="46" y="266" fill="#222" stroke="none" text-anchor="end">2°N</text><text x="52" y="278" fill="#222" stroke="none" text-anchor="middle">4°E</text><line x1="52" y1="200" x2="300" y2="200" stroke-opacity="0.6"/><line x1="114" y1="262" x2="114" y2="14" stroke-opacity="0.6"/><text x="46" y="204" fill="#222" stroke="none" text-anchor="end">4°N</text><text x="114" y="278" fill="#222" stroke="none" text-anchor="middle">6°E</text><line x1="52" y1="138" x2="300" y2="138" stroke-opacity="0.6"/><line x1="176" y1="262" x2="176" y2="14" stroke-opacity="0.6"/><text x="46" y="142" fill="#222" stroke="none" text-anchor="end">6°N</text><text x="176" y="278" fill="#222" stroke="none" text-anchor="middle">8°E</text><line x1="52" y1="76" x2="300" y2="76" stroke-opacity="0.6"/><line x1="238" y1="262" x2="238" y2="14" stroke-opacity="0.6"/><text x="46" y="80" fill="#222" stroke="none" text-anchor="end">8°N</text><text x="238" y="278" fill="#222" stroke="none" text-anchor="middle">10°E</text><line x1="52" y1="14" x2="300" y2="14" stroke-opacity="0.6"/><line x1="300" y1="262" x2="300" y2="14" stroke-opacity="0.6"/><text x="46" y="18" fill="#222" stroke="none" text-anchor="end">10°N</text><text x="300" y="278" fill="#222" stroke="none" text-anchor="middle">12°E</text><circle cx="114" cy="200" r="4" fill="#222"/><text x="121" y="194" fill="#222" stroke="none" text-anchor="start" font-weight="bold">P</text><circle cx="176" cy="138" r="4" fill="#222"/><text x="183" y="132" fill="#222" stroke="none" text-anchor="start" font-weight="bold">Q</text></svg>