<svg class="fig" viewBox="0 0 300 222" role="img" aria-label="A computer laboratory seen from above, showing how the desks are arranged" xmlns="http://www.w3.org/2000/svg" font-family="system-ui, sans-serif" font-size="11" fill="none" stroke="#222" stroke-width="1"><rect x="20" y="20" width="260" height="180" stroke-width="3"/><rect x="100" y="24" width="100" height="6" fill="#222"/><text x="150" y="44" fill="#222" stroke="none" text-anchor="middle" font-size="10">board</text><rect x="230" y="198" width="34" height="4" style="fill: var(--card, #fff)" stroke="none"/><text x="247" y="214" fill="#222" stroke="none" text-anchor="middle" font-size="10">door</text><g transform="translate(70 180) rotate(180)"><rect x="-14" y="-9" width="28" height="18" style="fill: #c9c3b8" stroke="#222"/><rect x="-8" y="-7" width="16" height="4" style="fill: #3b7dd8"/></g><g transform="translate(110 180) rotate(180)"><rect x="-14" y="-9" width="28" height="18" style="fill: #c9c3b8" stroke="#222"/><rect x="-8" y="-7" width="16" height="4" style="fill: #3b7dd8"/></g><g transform="translate(150 180) rotate(180)"><rect x="-14" y="-9" width="28" height="18" style="fill: #c9c3b8" stroke="#222"/><rect x="-8" y="-7" width="16" height="4" style="fill: #3b7dd8"/></g><g transform="translate(190 180) rotate(180)"><rect x="-14" y="-9" width="28" height="18" style="fill: #c9c3b8" stroke="#222"/><rect x="-8" y="-7" width="16" height="4" style="fill: #3b7dd8"/></g><g transform="translate(230 180) rotate(180)"><rect x="-14" y="-9" width="28" height="18" style="fill: #c9c3b8" stroke="#222"/><rect x="-8" y="-7" width="16" height="4" style="fill: #3b7dd8"/></g><g transform="translate(40 70) rotate(90)"><rect x="-14" y="-9" width="28" height="18" style="fill: #c9c3b8" stroke="#222"/><rect x="-8" y="-7" width="16" height="4" style="fill: #3b7dd8"/></g><g transform="translate(260 70) rotate(-90)"><rect x="-14" y="-9" width="28" height="18" style="fill: #c9c3b8" stroke="#222"/><rect x="-8" y="-7" width="16" height="4" style="fill: #3b7dd8"/></g><g transform="translate(40 105) rotate(90)"><rect x="-14" y="-9" width="28" height="18" style="fill: #c9c3b8" stroke="#222"/><rect x="-8" y="-7" width="16" height="4" style="fill: #3b7dd8"/></g><g transform="translate(260 105) rotate(-90)"><rect x="-14" y="-9" width="28" height="18" style="fill: #c9c3b8" stroke="#222"/><rect x="-8" y="-7" width="16" height="4" style="fill: #3b7dd8"/></g><g transform="translate(40 140) rotate(90)"><rect x="-14" y="-9" width="28" height="18" style="fill: #c9c3b8" stroke="#222"/><rect x="-8" y="-7" width="16" height="4" style="fill: #3b7dd8"/></g><g transform="translate(260 140) rotate(-90)"><rect x="-14" y="-9" width="28" height="18" style="fill: #c9c3b8" stroke="#222"/><rect x="-8" y="-7" width="16" height="4" style="fill: #3b7dd8"/></g></svg>